<svg xmlns="http://www.w3.org/2000/svg" width="400" height="300" viewBox="0 0 400 300">
  <rect width="400" height="300" fill="#f0f2f5"/>
  <rect x="1" y="1" width="398" height="298" fill="none" stroke="#d0d4da" stroke-width="1" stroke-dasharray="8,4"/>
  <g transform="translate(200, 120)">
    <rect x="-35" y="-30" width="70" height="55" rx="5" fill="none" stroke="#b0b8c1" stroke-width="2.5"/>
    <circle cx="0" cy="-8" r="10" fill="none" stroke="#b0b8c1" stroke-width="2.5"/>
    <path d="-35,25 L-15,0 L5,15 L20,-5 L35,25 Z" fill="#d0d4da"/>
    <polyline points="-35,25 -15,0 5,15 20,-5 35,25" fill="#d0d4da" stroke="none"/>
    <line x1="-35" y1="25" x2="35" y2="25" stroke="none"/>
    <path d="M-35,25 L-15,0 L5,15 L20,-5 L35,25 Z" fill="#d0d4da"/>
  </g>
  <g transform="translate(200, 135)">
    <path d="M-40,-38 Q-40,-48 -30,-48 L30,-48 Q40,-48 40,-38 L40,22 Q40,32 30,32 L-30,32 Q-40,32 -40,22 Z" fill="none" stroke="#b0b8c1" stroke-width="2.5"/>
    <circle cx="-15" cy="-22" r="8" fill="none" stroke="#b0b8c1" stroke-width="2"/>
    <path d="M-40,10 L-20,-12 L0,5 L18,-10 L40,10 L40,32 L-40,32 Z" fill="#d0d4da"/>
  </g>
  <text x="200" y="215" font-family="'Noto Sans KR', 'Apple SD Gothic Neo', sans-serif" font-size="15" fill="#8a93a2" text-anchor="middle" font-weight="500">이미지가 없습니다</text>
</svg>
