<svg xmlns="http://www.w3.org/2000/svg"
     viewBox="0 0 1254 1254"
     style="width:100%;max-width:800px;height:auto;display:block"
     aria-label="부산 행정구역 지도">
<defs>
  <style>
    .busan-map { background: #ddeeff; }
    .district {
      fill: #ffffff;
      stroke: #6ab0d4;
      stroke-width: 2;
      stroke-linejoin: round;
      cursor: pointer;
      transition: fill 0.18s, stroke 0.18s;
    }
    .district:hover,
    .district.active {
      fill: #b8ddf0;
      stroke: #2a7ab8;
      stroke-width: 2.5;
    }
    .dist-label {
      font-family: 'Noto Sans KR', 'Apple SD Gothic Neo', sans-serif;
      font-size: 24px;
      font-weight: 600;
      fill: #2c4a6e;
      pointer-events: none;
      text-anchor: middle;
      dominant-baseline: central;
    }
    /* 작은 구 글자 크기 조정 */
    #seo .dist-label, #dong .dist-label, #jung .dist-label,
    #yeonje .dist-label, #suyeong .dist-label { font-size: 20px; }
    #yeongdo .dist-label { font-size: 22px; }
  </style>
</defs>

<!-- 바다/배경 -->
<rect width="1254" height="1254" fill="#ddeeff"/>

<!-- 강서구 -->
<g id="gangseo" class="district" role="button" tabindex="0"
   aria-label="강서구" data-name="강서구">
  <path d="M 124.960,1214.028 C 126.314,1214.012 130.955,1215.237 135.275,1216.750 C 142.902,1219.420 143.171,1219.445 144.521,1217.619 C 145.287,1216.584 146.402,1213.209 147.001,1210.119 C 148.255,1203.640 149.130,1201.547 152.155,1197.785 C 154.325,1195.086 154.327,1195.036 152.555,1189.182 C 150.301,1181.737 151.138,1179.975 158.202,1177.291 C 163.209,1175.389 163.579,1175.002 165.043,1170.146 C 166.336,1165.856 167.340,1164.536 171.146,1162.122 C 174.721,1159.855 176.432,1157.753 179.089,1152.366 L 182.475,1145.500 L 183.029,1123.000 C 183.568,1101.106 185.969,1074.102 188.185,1065.000 C 188.788,1062.525 189.656,1056.225 190.113,1051.000 C 192.288,1026.171 193.069,1020.778 195.909,1011.000 C 200.799,994.162 201.267,992.927 203.142,991.924 C 204.203,991.356 211.305,991.225 220.712,991.600 C 233.300,992.102 237.919,992.697 243.500,994.536 C 247.350,995.804 252.975,997.136 256.000,997.496 C 259.025,997.856 266.900,999.265 273.500,1000.628 C 292.949,1004.645 291.380,1004.615 298.278,1001.106 C 301.700,999.366 308.550,994.456 313.500,990.195 C 322.006,982.874 322.637,982.054 325.000,975.251 C 326.375,971.293 328.728,966.789 330.229,965.244 C 333.998,961.363 337.178,952.024 337.973,942.500 C 338.461,936.659 339.534,932.487 341.949,927.040 C 345.014,920.127 345.215,919.030 344.690,912.089 C 344.177,905.304 344.406,903.935 347.125,897.550 C 350.631,889.312 354.487,865.014 354.147,853.292 C 353.898,844.703 355.658,839.734 359.671,837.698 C 361.227,836.908 367.161,834.825 372.858,833.069 C 378.775,831.244 384.153,828.937 385.401,827.687 C 386.734,826.352 388.503,821.993 389.941,816.500 C 391.237,811.550 393.918,804.350 395.899,800.500 C 399.202,794.079 399.500,792.797 399.500,785.000 C 399.500,777.738 399.834,776.032 401.794,773.283 C 403.403,771.028 404.524,767.166 405.544,760.370 C 407.398,748.021 407.374,744.455 405.398,738.656 C 404.280,735.373 403.903,731.444 404.148,725.632 C 404.486,717.639 404.703,716.976 409.623,708.905 C 416.325,697.908 418.768,693.020 425.019,678.092 C 429.444,667.526 430.367,664.186 431.239,655.592 C 432.700,641.185 433.589,638.373 438.339,633.132 C 440.649,630.584 444.732,624.088 447.413,618.695 C 452.402,608.661 453.214,607.704 465.782,597.033 C 469.788,593.633 475.450,587.622 478.365,583.675 C 481.281,579.729 485.961,573.375 488.766,569.556 C 494.789,561.356 500.939,547.531 501.692,540.500 C 502.005,537.570 501.343,529.953 500.092,522.101 C 498.918,514.731 497.675,504.727 497.330,499.869 L 496.703,491.036 L 494.102,491.627 C 489.110,492.760 464.471,501.270 460.761,503.142 C 458.704,504.180 453.754,505.664 449.761,506.440 C 445.767,507.215 439.350,509.304 435.500,511.082 C 427.115,514.953 422.284,515.204 396.328,513.123 C 379.453,511.770 379.081,511.783 374.828,513.861 C 372.448,515.024 366.900,518.821 362.500,522.298 C 358.100,525.775 350.675,531.068 346.000,534.060 C 337.839,539.283 337.241,539.496 331.000,539.388 C 326.129,539.304 322.119,538.366 315.000,535.645 C 303.835,531.378 299.748,531.062 296.963,534.250 C 295.882,535.488 292.999,538.750 290.557,541.500 L 286.117,546.500 L 263.308,546.500 C 246.613,546.500 239.900,546.843 238.260,547.780 C 235.224,549.514 233.005,554.103 232.978,558.700 C 232.930,567.058 227.408,573.927 214.497,581.692 L 208.345,585.393 L 208.299,593.946 C 208.274,598.651 208.084,603.582 207.876,604.905 C 207.549,607.001 208.625,607.974 216.214,612.447 C 227.884,619.326 229.668,621.157 231.150,627.778 C 231.868,630.988 234.179,636.021 236.691,639.846 C 241.385,646.992 241.790,649.173 239.462,654.746 C 237.206,660.144 235.358,661.754 229.442,663.474 C 223.385,665.235 220.000,668.728 220.000,673.218 C 220.000,674.840 221.350,679.538 223.000,683.659 C 224.650,687.780 226.000,692.964 226.000,695.180 C 226.000,697.611 224.062,704.222 221.111,711.854 C 218.421,718.809 215.384,727.189 214.361,730.476 C 212.703,735.802 212.098,736.604 208.812,737.838 C 205.509,739.080 204.729,739.030 201.329,737.362 C 194.393,733.959 194.438,727.604 201.538,707.996 C 205.628,696.698 205.714,692.988 201.930,690.962 C 198.374,689.060 194.272,690.940 186.418,698.075 C 179.720,704.158 178.319,705.000 174.888,705.000 C 171.555,705.000 170.122,704.209 165.117,699.607 C 158.031,693.093 155.983,692.306 152.097,694.602 C 148.741,696.584 147.284,699.299 146.366,705.283 C 144.896,714.864 140.122,720.127 128.870,724.570 C 118.311,728.740 109.423,729.511 89.419,727.994 C 75.300,726.923 70.032,726.905 62.206,727.903 C 49.053,729.579 39.948,731.737 37.791,733.689 C 34.210,736.930 36.397,748.926 41.816,755.768 C 43.482,757.871 45.948,762.087 47.297,765.137 C 49.015,769.022 50.834,771.353 53.374,772.922 C 55.368,774.155 58.572,777.082 60.494,779.428 C 65.949,786.085 78.663,789.529 86.876,786.574 C 93.599,784.155 99.196,784.565 105.942,787.971 C 111.045,790.547 112.155,791.643 114.294,796.221 C 115.651,799.124 117.062,802.487 117.430,803.694 C 117.798,804.901 120.804,808.231 124.109,811.094 C 132.260,818.156 135.348,824.278 135.411,833.500 C 135.486,844.532 132.078,849.247 113.265,864.144 C 102.983,872.285 101.925,873.420 102.381,875.830 C 102.658,877.299 103.176,883.706 103.530,890.069 L 104.175,901.637 L 96.310,909.569 C 91.985,913.931 87.830,918.988 87.078,920.806 C 86.101,923.168 84.259,924.848 80.632,926.686 C 72.821,930.645 61.703,941.289 54.783,951.433 C 51.382,956.420 46.279,962.975 43.444,966.000 C 36.119,973.816 34.908,977.970 33.967,998.500 C 33.179,1015.666 32.157,1021.160 27.097,1035.405 C 25.498,1039.908 25.000,1043.698 25.000,1051.363 L 25.000,1061.416 L 28.496,1064.996 C 31.106,1067.668 32.591,1070.637 34.354,1076.701 C 36.505,1084.097 42.441,1095.989 53.840,1115.734 C 56.137,1119.712 58.903,1125.217 59.986,1127.965 C 62.459,1134.239 68.435,1146.144 71.734,1151.370 C 73.114,1153.557 75.485,1158.981 77.001,1163.423 C 78.517,1167.866 82.698,1177.350 86.292,1184.500 C 89.885,1191.650 94.704,1201.775 97.001,1207.000 C 99.297,1212.225 101.588,1216.998 102.092,1217.607 C 102.751,1218.404 105.735,1218.062 112.754,1216.385 C 118.114,1215.105 123.607,1214.044 124.960,1214.029"/>
  <text class="dist-label" x="263" y="854">강서구</text>
</g>
<!-- 기장군 -->
<g id="gijang" class="district" role="button" tabindex="0"
   aria-label="기장군" data-name="기장군">
  <path d="M 1070.912,639.867 C 1072.053,638.804 1074.965,637.087 1077.383,636.050 C 1079.801,635.014 1082.040,633.744 1082.359,633.228 C 1083.573,631.264 1086.000,607.101 1086.000,596.983 C 1086.000,587.317 1085.660,585.394 1082.051,574.653 C 1078.115,562.935 1078.079,562.877 1070.549,555.700 C 1063.532,549.012 1062.996,548.208 1062.998,544.385 C 1062.998,541.752 1063.739,539.330 1065.052,537.662 C 1066.180,536.227 1067.782,533.062 1068.611,530.628 C 1069.650,527.580 1072.130,524.272 1076.579,520.000 C 1084.096,512.782 1084.712,511.794 1086.029,504.849 C 1086.873,500.396 1087.946,498.680 1093.449,492.980 C 1096.987,489.315 1100.197,485.065 1100.580,483.537 C 1100.964,482.008 1100.903,477.099 1100.445,472.629 C 1099.411,462.538 1099.491,453.733 1100.635,451.688 C 1101.113,450.834 1103.078,449.092 1105.002,447.817 C 1107.204,446.358 1109.611,443.278 1111.500,439.500 C 1114.433,433.633 1114.500,433.167 1114.500,418.500 C 1114.500,404.062 1114.388,403.238 1111.504,396.500 C 1107.204,386.453 1107.385,380.431 1112.228,372.500 C 1116.874,364.893 1121.458,353.256 1123.082,344.949 C 1123.775,341.402 1125.386,336.250 1126.662,333.500 C 1128.323,329.918 1128.983,326.675 1128.990,322.066 C 1129.000,318.527 1129.727,313.042 1130.615,309.876 C 1132.101,304.579 1132.101,303.745 1130.615,299.383 C 1128.424,292.953 1128.562,290.953 1131.693,283.720 C 1134.058,278.256 1134.392,276.162 1134.443,266.500 L 1134.500,255.500 L 1138.689,254.174 C 1141.310,253.345 1143.856,251.567 1145.490,249.424 C 1149.428,244.262 1152.803,244.688 1159.950,251.250 C 1167.129,257.842 1182.905,266.066 1188.300,266.027 C 1190.389,266.012 1193.380,265.338 1194.945,264.529 C 1196.509,263.719 1199.750,262.758 1202.145,262.391 C 1204.540,262.025 1207.464,261.225 1208.643,260.613 C 1211.848,258.949 1220.000,249.470 1220.000,247.407 C 1220.000,246.417 1221.105,244.008 1222.455,242.054 C 1224.661,238.860 1224.808,238.049 1223.905,234.051 C 1223.352,231.604 1222.484,226.316 1221.974,222.299 C 1221.118,215.548 1220.651,214.511 1215.774,208.547 C 1207.281,198.161 1206.076,196.409 1203.394,190.551 C 1200.560,184.360 1199.488,183.535 1193.000,182.548 C 1183.921,181.167 1168.372,175.043 1163.340,170.867 C 1161.205,169.095 1161.769,164.668 1164.999,157.840 C 1167.643,152.250 1167.998,150.429 1167.999,142.447 C 1168.000,134.113 1168.224,133.080 1170.823,129.447 C 1172.376,127.276 1174.575,123.199 1175.711,120.387 L 1177.775,115.274 L 1174.410,108.975 C 1172.559,105.511 1170.213,101.737 1169.197,100.588 C 1164.119,94.849 1157.619,84.250 1155.781,78.710 C 1154.648,75.294 1152.266,70.695 1150.488,68.488 C 1144.550,61.118 1124.896,42.012 1122.684,41.459 C 1121.483,41.159 1116.225,41.046 1111.000,41.207 L 1101.500,41.500 L 1097.368,48.000 C 1090.267,59.168 1090.024,59.331 1081.579,58.540 L 1074.311,57.858 L 1066.214,63.959 C 1056.053,71.616 1051.419,73.641 1042.057,74.516 C 1037.963,74.899 1032.563,75.834 1030.057,76.595 C 1020.750,79.420 1016.000,77.519 1016.000,70.969 C 1016.000,67.384 1014.180,65.430 1009.500,63.989 C 1007.300,63.312 998.114,59.632 989.086,55.812 C 971.517,48.377 969.317,48.061 966.376,52.548 C 963.827,56.439 964.344,62.074 967.934,69.517 L 971.141,76.165 L 970.820,97.400 L 970.500,118.634 L 966.640,124.235 C 961.566,131.599 958.556,134.242 952.449,136.695 C 944.040,140.073 939.300,143.668 935.098,149.855 C 930.749,156.259 929.630,157.000 924.303,157.000 C 921.502,157.000 920.015,156.203 917.134,153.159 C 913.767,149.601 912.701,149.156 902.627,147.102 C 891.472,144.827 889.481,143.959 882.397,138.286 C 880.140,136.479 878.019,135.000 877.682,135.000 C 877.346,135.000 873.792,133.011 869.785,130.581 C 863.636,126.850 860.504,125.743 849.698,123.480 L 836.897,120.800 L 832.782,123.650 C 824.998,129.043 823.240,135.710 826.611,147.061 C 829.828,157.896 827.073,166.379 817.852,174.024 C 814.358,176.921 810.715,180.463 809.757,181.895 C 807.444,185.350 807.521,192.207 809.950,199.118 C 812.632,206.747 811.907,208.624 805.123,211.624 C 801.938,213.033 797.786,215.971 795.509,218.428 C 792.856,221.290 790.075,223.143 787.289,223.905 C 784.726,224.606 781.074,226.905 777.958,229.779 L 772.839,234.500 L 771.073,244.805 C 769.661,253.046 768.676,256.007 766.152,259.587 C 763.043,263.998 761.072,269.972 761.024,275.132 C 760.998,277.972 761.977,278.376 786.048,285.434 C 795.825,288.301 797.925,290.076 800.920,298.000 C 803.346,304.418 803.458,308.098 801.500,317.000 C 800.714,320.575 800.054,325.566 800.035,328.091 C 800.016,330.616 799.330,334.891 798.511,337.591 C 796.332,344.773 796.661,353.524 799.663,368.244 L 802.325,381.302 L 800.544,388.901 C 799.564,393.080 798.091,398.678 797.271,401.340 C 796.141,405.008 796.060,406.460 796.938,407.340 C 797.575,407.978 802.237,408.736 807.298,409.025 C 815.817,409.511 816.856,409.808 821.303,413.025 C 823.945,414.936 827.995,417.862 830.303,419.527 C 833.862,422.095 834.837,423.614 836.718,429.527 C 837.938,433.362 839.922,438.355 841.127,440.621 C 843.249,444.613 843.650,444.842 853.909,447.916 C 867.193,451.897 870.531,453.548 872.184,456.957 C 875.438,463.667 883.875,476.704 887.723,480.969 C 890.497,484.043 892.582,487.693 893.798,491.599 C 894.817,494.872 897.416,500.238 899.575,503.524 C 903.222,509.077 903.500,510.008 903.500,516.677 C 903.500,525.590 901.847,528.169 893.157,532.817 C 887.333,535.932 886.708,536.626 882.893,544.212 C 878.265,553.418 878.220,556.948 882.677,561.404 C 887.263,565.990 894.057,567.222 912.648,566.840 C 932.094,566.440 932.024,566.404 933.923,577.730 C 934.892,583.508 935.564,584.940 938.507,587.500 C 941.525,590.125 942.076,591.356 942.917,597.354 C 944.023,605.240 945.426,607.212 951.150,608.927 C 956.823,610.626 957.554,609.630 960.154,596.652 C 963.346,580.725 966.499,577.794 980.644,577.608 C 987.935,577.512 989.112,577.757 991.324,579.835 C 992.691,581.119 994.135,583.819 994.533,585.835 C 995.891,592.709 995.788,618.218 994.384,622.969 C 993.163,627.101 993.218,627.603 995.110,629.617 C 996.236,630.816 998.359,632.015 999.829,632.282 C 1001.298,632.550 1005.076,633.721 1008.225,634.884 C 1012.698,636.537 1016.231,637.000 1024.376,637.000 C 1033.202,637.000 1035.577,637.359 1039.854,639.341 C 1044.230,641.368 1046.507,641.689 1056.872,641.740 C 1067.365,641.792 1069.093,641.562 1070.912,639.867"/>
  <text class="dist-label" x="992" y="341">기장군</text>
</g>
<!-- 해운대구 -->
<g id="haeundae" class="district" role="button" tabindex="0"
   aria-label="해운대구" data-name="해운대구">
  <path d="M 889.915,718.500 C 893.086,715.475 896.022,713.000 896.440,713.000 C 896.857,713.000 899.932,711.312 903.274,709.250 C 909.091,705.660 909.735,705.497 918.425,705.435 C 923.416,705.399 928.400,704.898 929.500,704.322 C 933.341,702.310 949.708,701.859 955.696,703.600 C 960.966,705.132 961.451,705.106 968.233,702.925 C 978.179,699.727 980.525,697.478 980.312,691.345 C 980.219,688.680 979.852,684.475 979.496,682.000 C 978.683,676.353 981.804,670.247 988.257,664.860 C 993.765,660.262 995.564,655.126 993.934,648.653 C 993.124,645.434 993.116,643.651 993.908,642.172 C 995.780,638.673 995.246,633.020 992.860,631.088 C 990.735,629.367 990.732,629.302 992.403,621.791 C 993.792,615.549 993.881,613.413 992.913,609.571 C 992.050,606.142 992.025,603.502 992.817,599.556 C 993.466,596.324 993.556,592.869 993.044,590.849 C 992.576,589.007 991.919,586.271 991.583,584.768 C 990.630,580.514 986.092,578.679 978.635,579.532 C 967.373,580.820 964.680,583.602 962.456,596.249 C 960.395,607.974 959.254,610.898 956.470,611.597 C 953.772,612.274 944.708,609.558 943.066,607.580 C 942.468,606.859 941.575,603.052 941.081,599.119 C 940.377,593.510 939.679,591.549 937.842,590.018 C 936.554,588.945 935.206,588.052 934.848,588.033 C 933.783,587.979 932.000,581.956 932.000,578.416 C 932.000,573.404 930.435,570.346 927.321,569.275 C 925.748,568.734 918.218,568.507 910.293,568.762 C 890.340,569.405 883.136,567.551 878.956,560.696 C 876.212,556.195 876.520,551.716 880.098,544.097 C 884.021,535.745 885.231,534.422 892.141,530.931 C 896.724,528.616 898.200,527.218 900.009,523.481 C 902.942,517.423 902.154,512.434 897.015,504.500 C 894.877,501.200 892.571,496.250 891.890,493.500 C 891.101,490.308 889.193,486.800 886.617,483.798 C 883.089,479.689 876.007,468.642 870.837,459.184 C 869.922,457.510 867.827,455.445 866.181,454.594 C 862.090,452.478 845.855,447.842 844.440,448.385 C 843.699,448.669 843.107,453.441 842.765,461.886 L 842.235,474.948 L 834.423,483.553 C 825.616,493.254 822.615,495.093 810.229,498.376 C 800.034,501.079 800.559,500.219 799.224,516.415 C 798.193,528.910 797.933,529.288 786.371,535.055 C 783.000,536.737 778.414,539.456 776.180,541.099 L 772.118,544.086 L 774.082,547.415 C 775.163,549.246 776.401,553.685 776.833,557.279 C 777.425,562.195 778.348,564.764 780.560,567.656 C 783.886,572.005 784.120,575.393 782.322,593.163 C 781.153,604.708 779.667,607.467 773.754,609.071 C 762.911,612.011 762.145,612.701 758.678,622.658 L 756.186,629.815 L 758.343,630.394 C 759.529,630.712 764.675,630.979 769.777,630.986 L 779.054,631.000 L 785.411,636.750 C 792.143,642.839 794.123,646.287 798.140,658.923 C 800.216,665.454 801.091,666.814 805.416,670.233 C 813.428,676.568 814.018,676.720 832.500,677.197 C 843.040,677.469 850.346,678.094 851.727,678.841 C 854.908,680.562 856.181,683.456 857.576,692.139 C 858.617,698.618 859.437,700.593 862.973,705.139 C 865.266,708.088 868.573,712.747 870.321,715.494 C 873.414,720.353 878.374,723.848 882.324,723.952 C 883.328,723.978 886.743,721.525 889.915,718.500"/>
  <text class="dist-label" x="875" y="586">해운대구</text>
</g>
<!-- 금정구 -->
<g id="geumjeong" class="district" role="button" tabindex="0"
   aria-label="금정구" data-name="금정구">
  <path d="M 780.294,542.421 C 796.291,533.742 795.965,534.178 797.197,519.892 C 797.829,512.557 798.749,507.401 799.598,506.436 C 800.354,505.576 804.242,504.101 808.237,503.159 C 819.509,500.500 823.945,497.868 832.238,488.919 L 839.726,480.838 L 840.441,466.919 L 841.156,453.000 L 838.079,446.500 C 836.386,442.925 835.001,439.447 835.001,438.770 C 834.998,434.595 831.510,429.398 826.660,426.342 C 823.822,424.554 819.935,421.833 818.022,420.295 C 814.839,411.236 813.839,411.000 806.206,411.000 C 793.625,411.000 792.540,409.851 795.435,399.588 C 799.714,384.417 799.961,381.592 797.828,372.246 C 795.008,359.888 794.340,342.962 796.399,336.029 C 797.279,333.063 798.000,328.256 798.000,325.347 C 798.000,322.437 798.731,316.731 799.624,312.667 C 801.208,305.458 801.194,305.134 799.047,299.389 C 796.172,291.691 794.750,290.265 788.074,288.379 C 785.008,287.513 777.333,285.259 771.017,283.370 L 759.535,279.936 L 753.920,282.456 C 750.506,283.988 742.266,286.006 732.902,287.605 C 723.323,289.240 716.020,291.040 713.586,292.367 C 709.962,294.342 709.550,295.023 708.020,301.584 C 706.361,308.699 703.834,313.797 699.067,319.652 C 697.655,321.385 695.012,324.648 693.194,326.902 C 688.483,332.740 685.389,332.546 678.807,325.998 C 676.041,323.246 671.915,320.172 669.639,319.165 C 667.363,318.158 664.044,315.675 662.265,313.649 L 659.029,309.964 L 654.265,311.088 C 647.722,312.633 645.000,315.797 645.000,321.861 C 645.000,328.078 642.911,330.859 628.727,343.527 C 614.884,355.890 613.563,358.651 615.164,371.889 C 616.163,380.153 616.140,380.301 611.947,393.355 C 606.549,410.159 606.231,413.109 608.875,421.814 C 610.660,427.691 612.080,429.982 617.928,436.421 C 626.561,445.925 627.441,448.440 626.684,461.426 C 626.032,472.590 627.545,494.274 629.214,497.702 C 630.619,500.587 634.744,501.950 644.340,502.698 C 651.969,503.294 652.222,503.398 653.729,506.558 C 656.260,511.866 658.549,512.421 678.076,512.463 C 695.650,512.500 695.652,512.500 699.231,515.229 C 701.200,516.730 705.656,521.159 709.133,525.071 C 712.610,528.983 716.728,532.842 718.285,533.647 C 720.061,534.566 724.909,535.232 731.307,535.436 C 738.925,535.680 743.016,536.341 747.500,538.053 C 750.800,539.314 756.875,540.643 761.000,541.007 C 765.125,541.371 768.632,541.743 768.794,541.834 C 768.955,541.925 774.130,539.264 780.294,535.921"/>
  <text class="dist-label" x="725" y="411">금정구</text>
</g>
<!-- 사하구 -->
<g id="saha" class="district" role="button" tabindex="0"
   aria-label="사하구" data-name="사하구">
  <path d="M 466.514,1063.488 C 470.548,1059.762 471.987,1054.805 471.994,1044.610 C 471.998,1038.941 471.284,1034.436 469.459,1028.610 C 468.061,1024.149 466.486,1019.118 465.959,1017.429 C 464.678,1013.327 464.749,1007.090 466.165,999.409 C 467.362,992.911 468.740,991.254 471.230,993.319 C 475.097,996.525 488.110,1018.140 491.001,1026.158 C 493.689,1033.613 494.666,1035.175 498.040,1037.408 C 502.391,1040.287 505.687,1040.681 508.462,1038.652 C 510.064,1037.480 510.213,1036.464 509.599,1030.902 C 508.709,1022.841 507.291,1005.473 506.096,988.000 C 505.588,980.575 504.946,973.825 504.669,973.000 C 504.392,972.175 503.888,967.732 503.549,963.127 L 502.933,954.754 L 506.736,951.127 C 508.828,949.132 511.584,945.807 512.859,943.737 C 516.676,937.546 518.088,937.311 526.502,941.468 C 533.309,944.832 533.882,945.362 534.423,948.797 C 535.111,953.166 536.858,968.000 537.686,976.500 C 538.009,979.816 539.567,985.392 541.170,988.966 C 543.822,994.878 544.050,996.280 543.830,1005.337 L 543.589,1015.244 L 546.713,1017.872 C 553.033,1023.189 557.289,1025.939 558.265,1025.336 C 558.893,1024.948 558.999,1022.064 558.550,1017.609 C 558.156,1013.699 557.475,1004.425 557.036,997.000 C 556.581,989.319 555.526,981.345 554.588,978.500 C 552.091,970.928 549.634,937.087 551.030,929.494 C 552.057,923.907 551.956,923.106 549.577,917.994 C 546.581,911.559 546.366,907.192 548.690,899.998 C 550.201,895.320 550.222,894.488 548.889,892.133 C 547.317,889.354 545.123,889.058 536.980,890.529 C 531.288,891.557 530.116,889.380 529.389,876.422 C 528.804,865.989 528.596,865.187 524.740,858.500 C 516.443,844.112 514.047,841.057 507.100,836.004 C 503.311,833.248 499.960,830.337 499.652,829.535 C 499.088,828.067 500.008,821.166 501.830,813.190 C 502.775,809.053 502.707,808.841 500.157,807.910 C 496.910,806.725 495.928,806.276 494.000,805.091 C 490.698,803.062 481.975,800.000 479.499,800.000 C 475.206,800.000 473.260,801.691 471.163,807.246 C 466.798,818.807 463.125,825.717 459.908,828.424 C 456.751,831.080 456.167,831.210 449.953,830.632 C 440.277,829.733 437.404,828.442 434.776,823.815 C 432.920,820.546 430.706,818.856 422.776,814.653 C 417.427,811.819 410.053,807.098 406.389,804.163 C 401.251,800.047 399.520,799.132 398.826,800.163 C 396.350,803.845 395.004,807.341 392.537,816.500 C 388.534,831.369 389.514,830.465 371.393,835.987 C 357.446,840.236 356.584,841.263 356.416,853.806 C 356.227,867.948 352.598,891.590 349.563,898.453 C 347.375,903.402 347.097,905.294 347.333,913.622 C 347.532,920.613 347.988,923.380 349.052,924.053 C 349.848,924.557 353.500,924.976 357.167,924.985 C 362.880,924.998 364.778,924.499 370.431,921.500 C 381.856,915.439 387.037,917.376 388.395,928.215 C 388.760,931.122 390.210,939.800 391.619,947.500 C 393.659,958.649 394.781,962.412 397.126,965.976 C 398.747,968.438 401.645,975.413 403.568,981.476 C 406.892,991.958 417.088,1036.263 418.451,1046.149 C 418.994,1050.086 419.899,1051.560 424.369,1055.788 C 429.874,1060.994 433.508,1063.149 445.975,1068.596 L 453.449,1071.863 L 458.351,1069.181 C 461.047,1067.707 464.720,1065.145 466.514,1063.488"/>
  <text class="dist-label" x="453" y="951">사하구</text>
</g>
<!-- 북구 -->
<g id="buk" class="district" role="button" tabindex="0"
   aria-label="북구" data-name="북구">
  <path d="M 562.329,623.621 C 563.192,622.304 568.038,619.246 573.194,616.765 C 578.312,614.303 587.000,609.343 592.500,605.744 C 598.000,602.144 605.046,597.552 608.157,595.539 C 611.575,593.327 614.049,590.940 614.409,589.508 C 614.736,588.204 616.580,584.491 618.506,581.257 C 621.229,576.686 622.231,573.609 623.006,567.428 C 623.554,563.056 624.407,558.133 624.901,556.489 C 627.722,547.098 639.519,525.586 645.459,519.000 C 653.038,510.596 653.111,510.475 652.162,507.909 C 651.353,505.722 650.435,505.433 641.071,504.415 C 625.316,502.703 624.944,501.943 624.466,470.500 C 624.291,458.950 624.114,448.968 624.074,448.317 C 624.033,447.667 620.671,443.317 616.603,438.651 C 608.327,429.158 604.867,421.776 604.788,413.441 C 604.757,410.193 606.268,403.446 609.007,394.595 C 612.844,382.196 613.216,380.111 612.695,373.902 C 612.377,370.104 611.838,366.548 611.499,365.998 C 611.160,365.449 607.703,365.000 603.817,365.000 L 596.752,365.000 L 589.765,357.524 C 581.699,348.895 578.971,347.852 571.207,350.431 C 566.567,351.973 544.948,364.887 537.505,370.564 C 535.618,372.003 532.470,375.598 530.509,378.552 C 526.751,384.214 527.513,381.576 510.449,448.000 C 506.846,462.025 502.957,476.603 501.808,480.395 C 499.951,486.520 499.785,488.866 500.325,501.395 C 500.659,509.153 501.398,517.405 501.968,519.733 C 504.124,528.554 504.973,537.871 504.058,542.683 C 502.595,550.379 493.667,567.598 485.068,579.309 L 477.131,590.118 L 478.577,594.809 C 479.371,597.389 480.302,600.625 480.645,602.000 C 482.166,608.100 486.114,610.215 501.056,612.932 C 507.350,614.077 518.350,616.565 525.500,618.462 C 538.079,621.798 555.786,625.718 559.135,625.907 C 560.034,625.958 561.471,624.930 562.329,623.621"/>
  <text class="dist-label" x="565" y="488">북구</text>
</g>
<!-- 사상구 -->
<g id="sasang" class="district" role="button" tabindex="0"
   aria-label="사상구" data-name="사상구">
  <path d="M 459.661,825.726 C 460.850,824.502 463.709,819.025 466.016,813.555 C 471.307,801.007 472.418,799.347 476.403,798.032 C 479.943,796.864 482.784,797.594 493.016,802.305 C 503.886,807.309 503.089,807.816 506.408,793.789 C 508.007,787.030 509.965,779.821 510.759,777.769 C 512.397,773.535 516.654,770.538 522.225,769.696 C 524.274,769.387 528.661,768.329 531.975,767.345 L 538.000,765.557 L 538.008,760.028 C 538.012,756.988 538.474,750.675 539.035,746.000 C 540.390,734.706 540.351,722.796 538.874,697.456 L 537.647,676.413 L 540.290,668.956 C 541.744,664.855 543.390,659.700 543.948,657.500 C 544.635,654.791 547.211,651.005 551.933,645.768 C 558.637,638.332 561.094,633.290 559.737,629.758 C 559.471,629.066 555.259,627.672 550.377,626.659 C 545.495,625.647 533.400,622.858 523.500,620.463 C 513.600,618.067 501.450,615.366 496.500,614.461 C 482.854,611.965 480.203,609.692 477.010,597.750 C 476.312,595.138 475.458,593.000 475.113,593.000 C 474.768,593.000 471.729,595.362 468.360,598.250 C 464.991,601.138 460.672,604.705 458.762,606.177 C 456.434,607.973 453.567,612.253 450.062,619.167 C 447.186,624.839 442.813,631.845 440.344,634.735 L 435.853,639.991 L 434.085,653.746 C 432.657,664.858 431.594,669.228 428.551,676.500 C 423.106,689.510 416.665,702.547 412.028,709.941 C 405.429,720.463 404.379,728.091 408.084,738.593 C 410.020,744.083 410.084,745.207 408.996,754.500 C 407.500,767.268 406.575,770.833 403.772,774.632 C 401.774,777.339 401.507,778.853 401.555,787.182 L 401.610,796.653 L 405.555,800.173 C 411.146,805.162 418.552,810.059 427.360,814.590 C 432.654,817.313 435.299,819.313 436.073,821.178 C 437.781,825.297 440.129,826.877 446.058,827.898 C 453.091,829.110 456.979,828.489 459.661,825.726"/>
  <text class="dist-label" x="481" y="710">사상구</text>
</g>
<!-- 부산진구 -->
<g id="busanjin" class="district" role="button" tabindex="0"
   aria-label="부산진구" data-name="부산진구">
  <path d="M 598.960,766.503 C 606.868,757.702 611.463,753.380 613.509,752.819 C 615.517,752.269 619.953,752.686 627.000,754.089 C 632.775,755.239 641.790,757.039 647.034,758.090 C 661.181,760.924 660.691,761.060 662.092,753.936 C 664.338,742.522 668.755,738.518 681.000,736.797 C 685.675,736.140 690.459,735.000 691.631,734.264 C 692.803,733.528 695.258,729.455 697.085,725.213 C 702.055,713.678 703.292,711.723 707.277,709.107 C 710.799,706.796 710.902,706.559 710.322,702.107 C 709.991,699.573 708.347,694.575 706.667,691.000 C 704.056,685.443 703.607,683.308 703.571,676.285 C 703.544,671.047 703.977,667.623 704.765,666.835 C 708.355,663.245 706.744,663.000 679.582,663.000 L 653.163,663.000 L 647.832,658.419 C 641.543,653.015 639.440,651.843 631.663,649.408 C 619.959,645.743 616.592,638.428 614.938,613.069 C 614.379,604.506 613.827,596.943 613.711,596.262 C 613.499,595.016 610.253,596.928 591.000,609.639 C 585.775,613.089 578.927,616.888 575.782,618.082 C 572.638,619.276 568.250,621.806 566.032,623.704 C 562.468,626.756 562.000,627.661 562.000,631.513 C 562.000,637.780 561.004,639.680 553.619,647.500 C 549.111,652.275 546.676,655.772 545.961,658.500 C 545.384,660.700 544.223,664.525 543.382,667.000 C 540.580,675.240 539.826,679.977 540.319,686.267 C 542.966,720.064 543.117,728.494 541.376,745.280 C 540.214,756.476 539.945,762.939 540.567,764.701 C 541.134,766.305 543.230,768.256 545.907,769.671 C 549.854,771.757 551.643,772.000 563.039,772.000 L 575.764,772.000 L 580.632,775.962 C 583.309,778.141 585.928,779.798 586.450,779.645 C 586.973,779.492 592.602,773.578 598.960,766.503"/>
  <text class="dist-label" x="635" y="688">부산진구</text>
</g>
<!-- 남구 -->
<g id="nam" class="district" role="button" tabindex="0"
   aria-label="남구" data-name="남구">
  <path d="M 764.548,879.354 C 765.896,877.899 767.000,876.379 767.000,875.977 C 767.000,874.596 777.503,870.702 781.500,870.602 C 784.266,870.532 787.868,871.674 793.178,874.302 C 797.401,876.392 802.405,878.354 804.296,878.661 C 808.549,879.351 812.441,877.042 813.853,872.992 C 814.417,871.375 816.618,869.003 818.883,867.574 C 826.396,862.831 826.524,856.567 819.581,833.403 C 818.073,828.373 816.886,821.177 816.446,814.403 C 816.056,808.406 815.119,802.280 814.363,800.789 C 813.607,799.298 810.854,796.864 808.244,795.381 C 796.563,788.740 792.845,785.678 786.781,777.702 C 778.941,767.392 777.251,765.836 770.209,762.447 C 767.069,760.935 761.495,757.965 757.822,755.847 C 752.095,752.544 750.792,751.247 748.679,746.748 C 746.198,741.466 744.679,735.157 743.440,725.000 C 742.545,717.653 742.083,716.949 733.866,710.393 L 726.774,704.735 L 721.508,705.998 C 718.611,706.693 715.382,707.315 714.332,707.381 C 710.038,707.649 705.180,713.378 700.022,724.259 C 694.153,736.640 693.207,737.385 682.000,738.448 C 673.804,739.226 669.208,741.723 666.626,746.802 C 664.433,751.116 662.977,761.951 663.639,769.040 C 664.038,773.314 663.649,779.155 662.516,785.906 C 660.096,800.315 660.691,807.270 664.829,812.949 C 667.967,817.256 668.064,817.685 667.875,826.449 C 667.768,831.427 668.120,838.602 668.657,842.394 C 669.460,848.062 670.137,849.721 672.464,851.722 C 674.020,853.061 676.015,853.941 676.897,853.677 C 677.779,853.413 682.282,851.803 686.904,850.099 C 697.994,846.010 701.491,846.068 707.212,850.435 C 711.739,853.892 714.512,858.309 715.614,863.820 C 716.439,867.943 721.387,873.645 726.347,876.187 C 729.698,877.904 732.430,878.339 740.500,878.438 C 747.827,878.527 751.302,879.009 753.500,880.240 C 757.955,882.735 761.692,882.435 764.548,879.354"/>
  <text class="dist-label" x="741" y="792">남구</text>
</g>
<!-- 영도구 -->
<g id="yeongdo" class="district" role="button" tabindex="0"
   aria-label="영도구" data-name="영도구">
  <path d="M 730.169,1021.389 C 738.507,1019.266 739.962,1018.409 741.188,1014.890 C 741.856,1012.975 743.410,1011.438 745.607,1010.520 C 749.766,1008.782 750.529,1006.929 751.791,995.500 C 753.027,984.301 752.392,982.914 743.553,977.500 C 736.181,972.985 734.897,970.536 737.283,965.532 C 738.137,963.741 739.150,960.184 739.533,957.626 C 739.917,955.069 741.079,951.898 742.115,950.581 C 743.152,949.263 744.000,947.115 744.000,945.808 C 744.000,943.179 740.347,932.145 738.892,930.378 C 737.867,929.134 727.996,925.490 715.000,921.557 C 710.325,920.142 705.671,918.345 704.657,917.564 C 702.122,915.610 696.347,906.474 694.363,901.281 C 692.547,896.524 689.440,894.199 681.430,891.603 C 678.421,890.627 674.677,888.341 672.219,885.979 C 669.654,883.515 667.130,882.000 665.587,882.000 C 664.218,882.000 660.533,881.332 657.398,880.515 C 652.734,879.301 650.442,879.238 644.784,880.173 C 638.363,881.233 633.000,883.912 633.000,886.058 C 633.000,886.559 631.640,889.180 629.978,891.882 C 626.109,898.170 621.879,900.318 615.131,899.423 C 608.787,898.581 604.240,900.124 599.928,904.580 C 598.043,906.528 594.588,908.969 592.250,910.005 C 589.913,911.040 588.000,912.129 588.000,912.423 C 588.000,913.185 596.756,921.177 599.773,923.169 C 601.163,924.086 603.539,926.827 605.053,929.260 C 606.617,931.772 611.546,936.603 616.464,940.443 C 623.429,945.882 625.623,948.260 627.679,952.603 C 631.408,960.478 639.984,968.057 648.231,970.764 C 655.625,973.191 659.408,972.699 665.591,968.503 C 670.776,964.984 675.463,963.642 677.939,964.967 C 680.118,966.133 680.245,966.526 682.156,977.985 C 683.678,987.113 684.972,988.502 697.540,994.494 C 702.523,996.869 707.079,999.417 707.665,1000.156 C 708.251,1000.895 708.994,1005.765 709.315,1010.977 C 709.771,1018.370 710.282,1020.733 711.641,1021.727 C 714.036,1023.478 722.571,1023.323 730.169,1021.389"/>
  <text class="dist-label" x="670" y="951">영도구</text>
</g>
<!-- 수영구 -->
<g id="suyeong" class="district" role="button" tabindex="0"
   aria-label="수영구" data-name="수영구">
  <path d="M 794.661,777.065 C 798.835,774.520 799.348,772.435 797.523,765.429 C 795.414,757.331 795.518,756.483 799.662,748.000 C 801.677,743.875 803.777,739.490 804.328,738.257 C 806.151,734.178 809.912,732.646 819.702,731.994 L 828.904,731.381 L 834.317,726.261 C 838.223,722.567 840.813,720.962 843.616,720.499 C 851.814,719.143 854.373,716.580 855.977,708.120 C 856.730,704.151 856.598,700.602 855.439,693.679 C 853.180,680.185 852.892,680.000 834.126,680.000 C 815.187,680.000 811.572,678.973 803.380,671.261 C 797.480,665.707 797.178,665.176 794.963,656.500 C 792.725,647.730 792.483,647.315 785.510,640.250 L 778.355,633.000 L 768.927,632.986 C 763.742,632.978 758.566,632.722 757.425,632.415 C 755.656,631.940 755.111,632.596 753.734,636.860 C 752.846,639.611 751.003,644.706 749.639,648.181 C 748.275,651.657 745.148,659.675 742.690,666.000 C 740.232,672.325 736.618,680.317 734.659,683.760 C 731.641,689.064 729.000,697.877 729.000,702.643 C 729.000,703.344 732.126,706.250 735.947,709.100 C 739.768,711.951 743.173,715.006 743.512,715.891 C 743.852,716.776 745.000,722.504 746.062,728.621 C 749.407,747.874 751.341,750.548 768.118,759.101 C 779.223,764.763 780.395,765.646 785.269,772.034 C 788.146,775.805 790.725,778.913 791.000,778.941 C 791.275,778.969 792.922,778.125 794.661,777.065"/>
  <text class="dist-label" x="792" y="706">수영구</text>
</g>
<!-- 동래구 -->
<g id="dongnae" class="district" role="button" tabindex="0"
   aria-label="동래구" data-name="동래구">
  <path d="M 757.550,620.000 C 759.780,612.962 762.234,610.305 768.113,608.559 C 773.581,606.935 777.188,605.168 778.235,603.600 C 778.639,602.995 778.976,600.007 778.985,596.960 C 778.993,593.913 779.675,588.829 780.500,585.661 C 782.664,577.353 782.401,575.055 778.612,569.174 C 776.088,565.256 775.054,562.324 774.556,557.675 C 773.646,549.179 770.541,543.802 765.990,542.840 C 764.071,542.435 760.806,542.363 758.736,542.682 C 755.936,543.112 753.502,542.602 749.236,540.690 C 744.436,538.538 741.379,538.008 730.500,537.440 L 717.500,536.760 L 707.369,526.401 C 701.798,520.703 695.948,515.541 694.369,514.930 C 692.435,514.181 686.939,514.039 677.500,514.496 C 666.170,515.044 662.651,514.880 659.046,513.633 C 655.931,512.556 654.218,512.404 653.346,513.128 C 649.332,516.459 639.214,531.849 633.533,543.264 C 627.618,555.147 626.828,557.455 625.800,565.846 C 624.882,573.331 624.018,576.248 621.459,580.498 C 619.702,583.416 617.756,587.262 617.135,589.044 C 615.597,593.454 615.411,593.329 642.333,605.930 C 652.418,610.650 653.699,611.000 660.886,611.000 C 667.785,611.000 669.026,610.697 672.553,608.148 C 679.917,602.827 686.365,601.974 704.000,603.987 C 708.675,604.520 717.900,605.359 724.500,605.850 C 740.315,607.026 743.214,608.401 747.561,616.788 C 749.353,620.247 751.591,624.254 752.534,625.692 C 754.537,628.749 754.912,628.324 757.550,620.000"/>
  <text class="dist-label" x="699" y="559">동래구</text>
</g>
<!-- 연제구 -->
<g id="yeonje" class="district" role="button" tabindex="0"
   aria-label="연제구" data-name="연제구">
  <path d="M 722.454,703.801 C 726.781,702.644 726.959,702.443 727.560,698.051 C 728.619,690.309 729.832,686.663 733.236,680.980 C 737.572,673.740 745.855,653.415 751.386,636.441 L 753.034,631.381 L 748.210,622.776 C 740.404,608.850 740.474,608.893 724.000,607.946 C 717.675,607.582 706.737,606.684 699.693,605.950 C 685.212,604.441 681.508,604.984 673.323,609.810 C 669.886,611.836 666.444,612.883 661.580,613.382 C 655.443,614.010 654.149,613.816 649.600,611.585 C 646.795,610.208 639.325,606.786 633.000,603.980 C 626.675,601.173 620.503,598.230 619.285,597.438 C 618.067,596.647 616.789,596.000 616.445,596.000 C 614.761,596.000 619.277,634.701 621.452,638.907 C 623.441,642.753 627.063,645.506 632.808,647.539 C 642.025,650.800 644.893,652.279 647.677,655.208 C 653.091,660.904 653.656,661.000 681.891,661.000 C 697.615,661.000 708.119,661.383 708.482,661.971 C 708.812,662.504 708.364,664.329 707.487,666.024 C 704.353,672.086 704.483,677.761 707.983,687.534 C 709.749,692.465 711.636,698.413 712.178,700.750 C 713.292,705.561 714.516,705.924 722.454,703.801"/>
  <text class="dist-label" x="685" y="650">연제구</text>
</g>
<!-- 서구 -->
<g id="seo" class="district" role="button" tabindex="0"
   aria-label="서구" data-name="서구">
  <path d="M 544.500,887.500 C 547.250,887.459 551.356,886.593 553.624,885.576 C 557.584,883.800 557.771,883.509 558.309,878.291 C 558.712,874.394 558.323,871.140 556.935,866.797 C 553.321,855.482 554.066,853.839 570.163,837.615 L 581.192,826.500 L 580.743,816.000 C 580.381,807.536 580.757,803.270 582.685,794.000 L 585.077,782.500 L 580.476,778.250 L 575.874,774.000 L 563.187,773.956 C 550.166,773.911 544.649,772.802 540.995,769.495 C 539.235,767.902 538.653,767.903 531.311,769.498 C 527.015,770.432 522.466,771.391 521.201,771.629 C 519.937,771.867 517.367,773.511 515.492,775.281 C 512.476,778.126 511.777,779.833 509.460,790.000 C 508.018,796.325 505.743,806.225 504.404,812.000 C 500.176,830.230 499.876,828.022 507.294,833.315 C 514.866,838.718 517.845,842.262 524.963,854.328 C 529.811,862.548 530.232,863.790 531.058,872.328 C 531.546,877.373 531.958,882.480 531.973,883.678 C 532.013,886.866 534.751,889.227 537.355,888.321 C 538.535,887.910 541.750,887.541 544.500,887.500"/>
  <text class="dist-label" x="545" y="829">서구</text>
</g>
<!-- 중구 -->
<g id="jung" class="district" role="button" tabindex="0"
   aria-label="중구" data-name="중구">
  <path d="M 590.741,908.538 C 592.619,908.136 595.143,906.448 596.741,904.523 C 598.258,902.696 601.213,900.196 603.307,898.968 C 606.583,897.047 607.988,896.825 613.393,897.379 C 618.900,897.943 620.091,897.741 623.086,895.733 C 624.964,894.474 627.773,891.081 629.329,888.193 C 632.684,881.965 635.380,880.010 643.385,878.000 C 648.073,876.823 649.393,876.069 649.519,874.500 C 649.607,873.400 650.016,871.019 650.428,869.209 C 651.378,865.033 649.188,861.420 645.169,860.537 C 640.950,859.611 637.818,856.320 638.138,853.151 C 638.712,847.474 637.355,846.780 624.383,846.112 L 612.500,845.500 L 602.443,839.279 C 589.314,831.158 583.580,828.619 581.219,829.883 C 578.914,831.116 559.691,851.789 558.157,854.684 C 556.469,857.870 556.730,861.211 559.094,866.667 C 560.790,870.583 561.071,872.674 560.572,877.690 C 559.994,883.504 560.132,884.082 562.844,887.190 C 564.432,889.011 566.701,892.413 567.886,894.750 C 569.071,897.088 570.456,899.000 570.963,899.000 C 571.470,899.000 574.938,901.670 578.671,904.933 C 582.683,908.441 585.874,910.532 586.478,910.048 C 587.040,909.599 588.958,908.919 590.741,908.538"/>
  <text class="dist-label" x="604" y="870">중구</text>
</g>
<!-- 동구 -->
<g id="dong" class="district" role="button" tabindex="0"
   aria-label="동구" data-name="동구">
  <path d="M 641.790,847.000 C 653.264,838.076 653.866,837.750 658.867,837.750 C 661.463,837.750 663.872,837.288 664.220,836.724 C 664.569,836.160 665.077,833.348 665.348,830.474 C 665.801,825.694 665.540,824.832 662.273,820.324 C 658.888,815.651 658.703,814.983 658.688,807.324 C 658.679,802.883 659.425,794.907 660.345,789.598 C 661.581,782.466 661.781,778.558 661.111,774.632 L 660.204,769.318 L 653.204,768.015 C 649.354,767.298 639.360,765.378 630.994,763.748 C 622.355,762.065 614.947,761.101 613.848,761.518 C 612.783,761.920 607.955,766.525 603.120,771.750 C 598.285,776.975 592.775,782.909 590.875,784.937 C 587.909,788.103 587.057,790.221 584.840,799.937 C 582.311,811.019 581.824,819.705 583.194,829.322 C 583.745,833.195 584.127,833.578 590.989,837.134 C 594.957,839.191 600.679,842.420 603.704,844.311 C 612.727,849.951 614.592,850.517 624.665,850.683 C 629.868,850.768 634.331,851.043 634.582,851.294 C 635.312,852.024 635.389,851.978 641.790,847.000"/>
  <text class="dist-label" x="624" y="796">동구</text>
</g>

<script>
(function(){
  var districts = document.querySelectorAll('.district');
  districts.forEach(function(el){
    el.addEventListener('click', function(){
      districts.forEach(function(d){ d.classList.remove('active'); });
      el.classList.add('active');
      var name = el.getAttribute('data-name');
      var id   = el.getAttribute('id');
      var evt = new CustomEvent('districtClick', { detail:{ id:id, name:name }, bubbles:true });
      el.dispatchEvent(evt);
    });
    el.addEventListener('keydown', function(e){
      if(e.key==='Enter'||e.key===' '){ el.click(); }
    });
  });
})();
</script>

</svg>